With: Macaulay Culkin, Christopher Lloyd and the voice of Patrick Stewart

Tyler weet zo veel af van ongelukken dat hij altijd bang is om ook maar iets te doen waarbij hij zich zou kunnen bezeren. Terwijl hij rondzwerft in een oude bibliotheek, komt hij op mysterieuze wijze terecht in de wereld van boeken. Nu moet hij zien te ontsnappen uit de wereld waarin horror, fantasie en avontuur regeert.

A cowardly boy who buries himself in accident statistics enters a library to escape a storm only to be transformed into an animated illustration by the Pagemaster. He has to work through obstacles from classic books to return to real life. 
 
http://www.imdb.com/title/tt0110763	

------------------------ Dutch Friends ------------------------
---------------------------------------------------------------
- Bezoek ook eens mijn vrienden op:  http://www.Film-Test.nl --
----- voor mijn Nederlandse Sync. ondertitels ---- en meer ----
------- http://www.Film-Test.nl ---- Over Films en meer -------
---------------------------------------------------------------

General:

Complete name                    : The PagemasterThe Pagemaster.avi
Format                           : AVI
Format/Info                      : Audio Video Interleave
File size                        : 885 MiB
Duration                         : 1h 15mn
Overall bit rate                 : 1 641 Kbps

Video:

Format                           : MPEG-4 Visual
Format profile                   : Simple@L1
Format settings, BVOP            : No
Format settings, QPel            : No
Format settings, GMC             : No warppoints
Format settings, Matrix          : Default (H.263)
Codec ID                         : DX50
Codec ID/Hint                    : DivX 5
Duration                         : 1h 15mn
Bit rate                         : 1 500 Kbps
Width                            : 720 pixels
Height                           : 480 pixels
Display aspect ratio             : 4:3
Frame rate                       : 23.976 fps
Standard                         : NTSC
Color space                      : YUV
Chroma subsampling               : 4:2:0
Bit depth                        : 8 bits
Scan type                        : Progressive
Compression mode                 : Lossy
Bits/(Pixel*Frame)               : 0.181
Stream size                      : 809 MiB (91%)
Writing library                  : Lavc51.40.4

Audio:

Format                           : MPEG Audio
Format version                   : Version 1
Format profile                   : Layer 3
Mode                             : Joint stereo
Mode extension                   : MS Stereo
Codec ID                         : 55
Codec ID/Hint                    : MP3
Duration                         : 1h 15mn
Bit rate mode                    : Constant
Bit rate                         : 128 Kbps
Channel(s)                       : 2 channels
Sampling rate                    : 48.0 KHz
Compression mode                 : Lossy
Delay relative to video          : 24ms
Stream size                      : 69.0 MiB (8%)
Alignment                        : Split accross interleaves
Interleave, duration             : 24 ms (0.58 video frame)
Writing library                  : LAME3.96.1